@startuml
'https://plantuml.com/class-diagram

class Instructor{
    ~ firstName : String
    ~ lastName : String
    ~ officeNumber : String

    + getFirstName() : String
    + setFirstName(firstName : String) : void
    + getLastName() : String
    + setLastName(lastName : String) : void
    + getOfficeNumber() : String
    + setOfficeNumber(officeNumber : String) : void
    + toString() : String
}
class Textbook{
    ~ title : String
    ~ author : String
    ~ publisher : String

    + getTitle() : String
    + setTitle(title : String) : void
    + getAuthor() : String
    + setAuthor(author : String) : void
    + getPublisher() : String
    + setPublisher(publisher : String) : void
    + toString() : String
}
class Course{
    ~ name : String
    ~ instructors : Instructor[*]
    ~ textbook : Textbook[*]

    + Course()
    + getName() : String
    + setName(name : String) : void
    + getInstructors() : Instructor[*]
    + setInstructors(instructors : String) : void
    + getTextbook() : Textbook[*]
    + setTextbook(textbook : String) : void
    + toString() : String

}

Course o-- "1..*" Instructor
Course o-- "1..*" Textbook

@enduml