@startuml
'https://plantuml.com/class-diagram

class File{
    - name : String

    + File(name : String)
    + getName() : String
    + setName(name : String) : void
    + toString() : String
}

class Folder{
    - name : String
    - subFolders : Folder[*]
    - files : File[*]

    + Folder()
    + getName() : String
    + setName(name : String) : void
    + removeSubfolder(subFolderName : String) : void
    + addSubfolder(subFolderName : String) : void
    + getSubfolder(subFolderName : String) : Folder
    + removeFile(file : File) : boolean
    + addFile(fileName : String) : void
    + toString() : String


}

Folder "1" *-- "*" File
Folder "1" *-- "*" Folder

@enduml