@startuml
'https://plantuml.com/class-diagram

abstract class Employee{
    - firstName : String
    - lastName : String
    - socialSecurityNumber : String

    + getFirstName() : String
    + setFirstName(firstName : String) : void
    + getLastName() : String
    + setLastName(lastName : String) : void
    + getSocialSecurityNumber() : String
    + setSocialSecurityNumber(socialSecurityNumber : String) : void
    + toString() : String
}

class SalariedEmployee{
    ~ weeklySalary : int

    + getWeeklySalary() : int
    + setWeeklySalary(weeklySalary : int) : void
    + toString() : String
}
class HourlyEmployee{
    ~ wage : int
    ~ hourWorked : int

    + getWage() : int
    + setWage(wage : int) : void
    + getHourlyWorker() : int
    + setHourlyWorked(hourlyWorked : int) : void
    + toString() : String
}

class CommissionEmployee{
    ~ commissionRate : int
    ~ grossSale : int

    + getCommissionRate() : int
    + setCommissionRate(commissionRate : int) : void
    + getGrossSale() : int
    + setGrossSale(grossSale : int) : void
    + toString() : String
}

class BaseEmployee{
    ~ baseSalary: int

    + getBaseSalary() : int
    + setBaseSalary(baseSalary : int) : void
    + toString() : String

}

Employee <|-- SalariedEmployee
Employee <|-- HourlyEmployee
Employee <|-- CommissionEmployee
Employee <|-- BaseEmployee

@enduml