@startuml
'https://plantuml.com/class-diagram

class Ship{
    # shipName : String
    # yearBuilt : String

    + getShipName() : String
    + setShipName(sihpName : String) : void
    + getYearBuilt() : String
    + setYearBuilt(yearBuilt : String) : void
    + toString() : String

}
class CargoShip{
    ~ cargoCapacityInTonnage : int

    + getCargoCapacityInTonnage() : int
    + setCargoCapacityInTonnage(cargoCapacityInTonnage : String) : void
    + toString() : String
}
class CruiseShip{
    ~ maxNumberPassengers : int

    + getMaxNumberPassengers() : int
    + setMaxNumberPassengers(maxNumberPassengers : String) : void
    + toString() : String
}

Ship <|-- CargoShip
Ship <|-- CruiseShip
@enduml